<svg width="27" height="28" viewBox="0 0 27 28" fill="none" xmlns="http://www.w3.org/2000/svg">
<path d="M2.424 27.5C1.733 27.5 1.1565 27.269 0.6945 26.807C0.2325 26.345 0.001 25.7685 0 25.0775V5.92253C0 5.23253 0.2315 4.65653 0.6945 4.19453C1.1575 3.73253 1.734 3.50103 2.424 3.50003H5.0775V0.155029H6.693V3.50003H17.424V0.155029H18.924V3.50003H21.5775C22.2675 3.50003 22.844 3.73153 23.307 4.19453C23.77 4.65753 24.001 5.23403 24 5.92403V13.424H22.5V11.924H1.5V25.0775C1.5 25.3075 1.596 25.519 1.788 25.712C1.98 25.905 2.1915 26.001 2.4225 26H11.769V27.5H2.424ZM1.5 10.4225H22.5V5.92253C22.5 5.69253 22.404 5.48103 22.212 5.28803C22.02 5.09503 21.808 4.99903 21.576 5.00003H2.424C2.193 5.00003 1.981 5.09603 1.788 5.28803C1.595 5.48003 1.499 5.69203 1.5 5.92403V10.4225ZM15.345 27.5V24.185L23.346 16.2245C23.494 16.0765 23.6475 15.9765 23.8065 15.9245C23.9665 15.8725 24.1265 15.8465 24.2865 15.8465C24.4515 15.8465 24.6185 15.8785 24.7875 15.9425C24.9575 16.0075 25.1065 16.1045 25.2345 16.2335L26.622 17.6495C26.745 17.7975 26.8385 17.9515 26.9025 18.1115C26.9675 18.2705 27 18.43 27 18.59C27 18.75 26.9695 18.911 26.9085 19.073C26.8475 19.235 26.752 19.39 26.622 19.538L18.66 27.5H15.345ZM16.674 26.174H18.099L23.2995 20.963L22.5945 20.2505L21.912 19.5185L16.674 24.7475V26.174ZM22.5945 20.2505L21.912 19.5185L23.2995 20.963L22.5945 20.2505Z" fill="#00060E"/>
</svg>
