<svg width="30" height="27" viewBox="0 0 30 27" fill="none" xmlns="http://www.w3.org/2000/svg">
<path d="M15.2301 2.30006L15.2299 2.29998C15.1595 2.26105 15.0804 2.24063 15 2.24063C14.9196 2.24063 14.8405 2.26105 14.7701 2.29998L14.7699 2.30006L1.99929 9.39403C1.7634 9.51194 1.49112 9.5344 1.23905 9.4567C0.986347 9.37879 0.773526 9.20623 0.645071 8.97508C0.516616 8.74393 0.482467 8.47208 0.549762 8.21635C0.616882 7.96127 0.779741 7.74191 1.00443 7.60386L13.7736 0.509898L13.7736 0.509894C14.1487 0.301436 14.5708 0.192041 15 0.192041C15.4292 0.192041 15.8513 0.301436 16.2264 0.509894L16.2264 0.509898L28.9974 7.6049L28.9974 7.60497L29.0011 7.60684C29.1246 7.66888 29.2343 7.75525 29.3235 7.86076C29.4128 7.96627 29.4798 8.08874 29.5205 8.22081C29.5612 8.35289 29.5748 8.49183 29.5605 8.62929C29.5461 8.76674 29.5041 8.89988 29.437 9.02068C29.3698 9.14148 29.279 9.24747 29.1698 9.33225C29.0607 9.41703 28.9355 9.47887 28.8019 9.51404C28.6682 9.54921 28.5288 9.55698 28.3921 9.5369C28.2553 9.51682 28.1241 9.46929 28.0062 9.39717L28.0062 9.3971L28.0026 9.39506L15.2301 2.30006ZM10.975 8.49998C10.975 8.22814 11.083 7.96742 11.2752 7.7752C11.4674 7.58297 11.7281 7.47498 12 7.47498H18C18.2718 7.47498 18.5326 7.58297 18.7248 7.7752C18.917 7.96742 19.025 8.22814 19.025 8.49998C19.025 8.77183 18.917 9.03254 18.7248 9.22476C18.5326 9.41699 18.2718 9.52498 18 9.52498H12C11.7281 9.52498 11.4674 9.41699 11.2752 9.22476C11.083 9.03254 10.975 8.77183 10.975 8.49998ZM5.99999 11.975C6.27184 11.975 6.53255 12.083 6.72478 12.2752C6.917 12.4674 7.02499 12.7281 7.02499 13V20.5C7.02499 20.7718 6.917 21.0325 6.72478 21.2248C6.53255 21.417 6.27184 21.525 5.99999 21.525C5.72815 21.525 5.46743 21.417 5.27521 21.2248C5.08298 21.0325 4.97499 20.7718 4.97499 20.5V13C4.97499 12.7281 5.08298 12.4674 5.27521 12.2752C5.46743 12.083 5.72815 11.975 5.99999 11.975ZM12 11.975C12.2718 11.975 12.5326 12.083 12.7248 12.2752C12.917 12.4674 13.025 12.7281 13.025 13V20.5C13.025 20.7718 12.917 21.0325 12.7248 21.2248C12.5326 21.417 12.2718 21.525 12 21.525C11.7281 21.525 11.4674 21.417 11.2752 21.2248C11.083 21.0325 10.975 20.7718 10.975 20.5V13C10.975 12.7281 11.083 12.4674 11.2752 12.2752C11.4674 12.083 11.7281 11.975 12 11.975ZM18 11.975C18.2718 11.975 18.5326 12.083 18.7248 12.2752C18.917 12.4674 19.025 12.7281 19.025 13V20.5C19.025 20.7718 18.917 21.0325 18.7248 21.2248C18.5326 21.417 18.2718 21.525 18 21.525C17.7281 21.525 17.4674 21.417 17.2752 21.2248C17.083 21.0325 16.975 20.7718 16.975 20.5V13C16.975 12.7281 17.083 12.4674 17.2752 12.2752C17.4674 12.083 17.7281 11.975 18 11.975ZM24 11.975C24.2718 11.975 24.5326 12.083 24.7248 12.2752C24.917 12.4674 25.025 12.7281 25.025 13V20.5C25.025 20.7718 24.917 21.0325 24.7248 21.2248C24.5326 21.417 24.2718 21.525 24 21.525C23.7281 21.525 23.4674 21.417 23.2752 21.2248C23.083 21.0325 22.975 20.7718 22.975 20.5V13C22.975 12.7281 23.083 12.4674 23.2752 12.2752C23.4674 12.083 23.7281 11.975 24 11.975ZM3.47499 25C3.47499 24.7281 3.58298 24.4674 3.77521 24.2752C3.96743 24.083 4.22815 23.975 4.49999 23.975H25.5C25.7718 23.975 26.0326 24.083 26.2248 24.2752C26.417 24.4674 26.525 24.7281 26.525 25C26.525 25.2718 26.417 25.5325 26.2248 25.7248C26.0326 25.917 25.7718 26.025 25.5 26.025H4.49999C4.22815 26.025 3.96743 25.917 3.77521 25.7248C3.58298 25.5325 3.47499 25.2718 3.47499 25Z" fill="#00060E" stroke="white" stroke-width="0.2"/>
</svg>
